# xmcd CD database file
#
# Track frame offsets:
#	150
#	34520
#	64597
#	93732
#	119547
#	141921
#	169353
#	194371
#	232164
#	259963
#	286657
#
# Disc length: 4115 seconds
#
# Revision: 4
# Processed by: cddbd v1.5.1PL2 Copyright (c) Steve Scherf et al.
# Submitted via: CDex 1.51
#
DISCID=a610110b
DTITLE=Jesper Thilo - 40th Anniversary Collection [CD2]
DYEAR=1998
DGENRE=Jazz
TTITLE0=Telegraph - E. Davis
TTITLE1=Lil' Darlin - Neal Hefti
TTITLE2=Five Bebop Tunes - Monk - Parker - McLean
TTITLE3=In The Wee Small Hours - B. Hilliard - D. Mann
TTITLE4=Blue Lou - E. Sampson
TTITLE5=Svinninge Blues - O. Pettiford
TTITLE6=On Green Dolphin Street - Washington - Kaper
TTITLE7=Sweet Lorraine - Burwell - Parish
TTITLE8=Perdido - Lenk - Drake - Tizol
TTITLE9=Quasimodo - C. Parker
TTITLE10=Prelude To A Kiss - Ellington
EXTD=YEAR: 1998
EXTT0=
EXTT1=
EXTT2=
EXTT3=
EXTT4=
EXTT5=
EXTT6=
EXTT7=
EXTT8=
EXTT9=
EXTT10=
PLAYORDER=
